<?xml version="1.0" ?><!DOCTYPE svg  PUBLIC '-//W3C//DTD SVG 1.1//EN'  'http://www.w3.org/Graphics/SVG/1.1/DTD/svg11.dtd'><svg enable-background="new 0 0 30 30" height="30px" id="Meetup" version="1.1" viewBox="0 0 30 30" width="30px" xml:space="preserve" xmlns="http://www.w3.org/2000/svg" xmlns:xlink="http://www.w3.org/1999/xlink"><path d="M24,4c-0.251-0.867-1.041-3.723-1.813-4c-1.375,0-2.615-0.011-4,0C17.697,0.003,16.176,2.581,16,3  c-0.965,2.314-1.313,3.596-2,6c-0.724,2.54-1.409,5.221-2,8c-0.265-0.444-0.821-1.663-1-2c-1.31-2.508-1.688-4.497-3-7  C6.679,5.481,6.838,4.532,4,5C3.294,5.114,1.649,5.708,1,6C0.677,6.146,0,6.75,0,8c0,5.875,0,11.375,1,17  c0.612,4.011,0.167,4.469,4,3c0.191-0.074-0.191,0.08,0,0c2-1,3.156-1.01,3-2c-0.275-1.713-0.778-4.279-1-6  c0.079-0.006-0.081,0.006,0,0c1,0,2.891,3.095,4,5c0.91,1.551,2,2,3,2c4,0,5-1,5-2s-0.044-3.236,0-4c0-2-0.094-7.285,0-8  c1.735,5.547,3.387,10.657,5,16c0.28,0.933,1.944,1.293,2.938,1c1.813,0,3.29-0.655,3.063-1.438C28,21.674,27.234,17.344,26,12  C25.297,8.948,25,8,24,4z" id="M"/></svg>